HIERARCHY
ROOT Hips
{
	OFFSET	0.00	0.00	0.00
	CHANNELS 6 Xposition Yposition Zposition Zrotation Xrotation Yrotation
	JOINT Spine
	{
		OFFSET	 0.00	0.01	 0.00
		CHANNELS 3 Zrotation Xrotation Yrotation
		JOINT Spine1
		{
			OFFSET	 0.00	 2.45913012437421	 0.00
			CHANNELS 3 Zrotation Xrotation Yrotation
            JOINT Neck
            {
                OFFSET	 0.00	 2.48462964506057	 0.00
                CHANNELS 3 Zrotation Xrotation Yrotation
                JOINT Head
                {
                    OFFSET	 0.00	 0.927524780924562	 0.00
                    CHANNELS 3 Zrotation Xrotation Yrotation
                    End Site 
                    {
                        OFFSET	 0.00	 1.14999962169752	 0.00
                    }
                }
            }
			JOINT LeftShoulder
			{
				OFFSET	 0.00	 2.48462964506057	 0.00
				CHANNELS 3 Zrotation Xrotation Yrotation
				JOINT LeftUpArm
				{
					OFFSET	 0.00	 1.24881979654096	 0.00
					CHANNELS 3 Zrotation Xrotation Yrotation
					JOINT LeftForeArm
					{
						OFFSET	 0.00	2.59758046908119	 0.00
						CHANNELS 3 Zrotation Xrotation Yrotation
						JOINT LeftHand
						{
							OFFSET	 0.00	2.45542024364365	 0.00
							CHANNELS 3 Zrotation Xrotation Yrotation
							JOINT LeftHandThumb 
							{
								OFFSET	 0.00	0.00	 0.00
								CHANNELS 3 Zrotation Xrotation Yrotation
								End Site
								{
									OFFSET	 0.00	0.00	1.00000003353624
								}
							}
							JOINT L_Wrist_End 
							{
								OFFSET	 0.00	0.99999967115358	 0.00
								CHANNELS 3 Zrotation Xrotation Yrotation
								End Site 
								{
									OFFSET	 0.00	 0.00	 0.00
								}
							}
						}
					}
				}
			}
			JOINT RightShoulder
			{
				OFFSET	 0.00	 2.48462964506057	 0.00
				CHANNELS 3 Zrotation Xrotation Yrotation
				JOINT RightUpArm
				{
					OFFSET	 0.00	 1.24881979654096	 0.00
					CHANNELS 3 Zrotation Xrotation Yrotation
					JOINT RightForeArm
					{
						OFFSET	 0.00	2.59758046908119	 0.00
						CHANNELS 3 Zrotation Xrotation Yrotation
						JOINT RightHand
						{
							OFFSET	 0.00	2.45542024364365	 0.00
							CHANNELS 3 Zrotation Xrotation Yrotation
							JOINT RightHandThumb 
							{
								OFFSET	 0.00	0.00	 0.00
								CHANNELS 3 Zrotation Xrotation Yrotation
								End Site
								{
									OFFSET	 0.00	0.00	1.00000003353624
								}
							}
							JOINT R_Wrist_End 
							{
								OFFSET	 0.00	0.99999967115358	 0.00
								CHANNELS 3 Zrotation Xrotation Yrotation
								End Site 
								{
									OFFSET	 0.00	 0.00	 0.00
								}
							}
						}
					}
				}
			}
		}
	}
	JOINT LeftUpLeg
	{
		OFFSET	 1.2719394002717	 0.00	 0.00
		CHANNELS 3 Zrotation Xrotation Yrotation
		JOINT LeftLowLeg
		{
			OFFSET	 0.00	-4.3429100912261	 0.00
			CHANNELS 3 Zrotation Xrotation Yrotation
			JOINT LeftFoot
			{
				OFFSET	 0.00	-4.48767017425826	 0.00
				CHANNELS 3 Zrotation Xrotation Yrotation
				JOINT LeftToeBase
                {
                    OFFSET	 0.00	0.00	 1.51507020887566
                    CHANNELS 3 Zrotation Xrotation Yrotation
                    End Site 
                    {
                        OFFSET	 0.00	0.00	 0.75000010571191
                    }
                }
			}
		}
	}
	JOINT RightUpLeg
	{
		OFFSET	 -1.2719393604653	 0.00	 0.00
		CHANNELS 3 Zrotation Xrotation Yrotation
		JOINT RightLowLeg
		{
			OFFSET	 0.00	-4.3429100912261	 0.00
			CHANNELS 3 Zrotation Xrotation Yrotation
			JOINT RightFoot
			{
				OFFSET	 0.00	-4.48767017425826	 0.00
				CHANNELS 3 Zrotation Xrotation Yrotation
				JOINT RightToeBase
                {
                    OFFSET	 0.00	0.00	 1.51507020887566
                    CHANNELS 3 Zrotation Xrotation Yrotation
                    End Site 
                    {
                        OFFSET	 0.00	0.00	 0.749999965609858
                    }
                }   
			}
		}
	}
}
MOTION 
Frames:	20 
Frame Time: 0.02 
  9.566790161132813 -1.3777699279785156 10.529300537109375 -5.08366 72.2928 154.969 8.15018 4.46444 -10.4242 -24.8472 37.7103 -3.41604 67.7804 27.4222 -67.2587 62.7607 -61.5965 45.7788 -99.70167 10.8508 -5.14697 -17.0894 13.0748 16.6258 0.0 36.8039 0.0 21.7086 -4.25866 -1.6115 0.0 0.0 0.0 0.0 0.0 0.0 126.034805 -2.21007 8.52012 33.4435 15.1017 22.4073 0.0 134.803 0.0 -68.7162 30.1661 30.3336 0.0 0.0 0.0 0.0 0.0 0.0 4.01448 -23.9349 11.0682 0.0 52.081 0.0 -7.60635 12.99652 -6.94191 0.0 -30.4399 0.0 15.2607 -33.2924 15.9741 0.0 14.463 0.0 14.5988 20.09708 -20.8853 0.0 -14.661751 0.0 
  9.637960205078125 -1.2509700012207032 10.565899658203126 -6.29608 71.8874 156.333 8.04053 4.63074 -9.91157 -25.2835 37.3152 -3.36237 67.3431 27.66 -66.3776 62.8291 -60.7384 47.2615 -101.4279 9.05992 -3.50544 -16.3253 14.7303 16.5152 0.0 33.7551 0.0 20.4479 -5.79317 -2.66179 0.0 0.0 0.0 0.0 0.0 0.0 126.5054 -2.29186 7.42802 32.949 15.63 23.3256 0.0 134.804 0.0 -68.6728 29.9356 30.3411 0.0 0.0 0.0 0.0 0.0 0.0 4.38547 -25.9637 10.5427 0.0 54.7357 0.0 -11.4864 15.204485 -6.72129 0.0 -27.4988 0.0 14.9224 -33.4738 14.875 0.0 15.4122 0.0 14.1641 19.55737 -19.7416 0.0 -13.94395 0.0 
  9.701519775390626 -1.126050033569336 10.60010009765625 -7.10863 71.3225 157.444 8.22211 3.72648 -9.81868 -26.1488 38.1665 -2.61 63.9785 27.7718 -63.5994 61.8666 -58.925 46.6423 -100.9516 8.61275 -4.04377 -18.1686 14.0374 16.5788 0.0 31.2844 0.0 19.2298 -6.72973 -2.28883 0.0 0.0 0.0 0.0 0.0 0.0 127.361 -1.69844 5.75287 31.7201 15.4595 26.6098 0.0 138.519 0.0 -61.3578 19.6091 25.9108 0.0 0.0 0.0 0.0 0.0 0.0 4.83795 -28.253 10.1927 0.0 57.229 0.0 -10.2005 16.03912 -6.3166 0.0 -31.2087 0.0 14.6688 -33.6573 14.196 0.0 16.1304 0.0 14.0907 18.9617 -19.1587 0.0 -13.72216 0.0 
  9.7685498046875 -1.0004499816894532 10.6356005859375 -7.16661 70.848 158.126 8.38651 3.52492 -9.6103 -26.4714 38.0586 -2.53405 62.3264 28.4098 -61.4315 61.8492 -57.8109 47.7761 -101.3659 8.18745 -3.74689 -18.9967 13.1563 16.3502 0.0 29.3145 0.0 18.4774 -7.65947 -1.55763 0.0 0.0 0.0 0.0 0.0 0.0 127.024796 -1.94628 8.48185 33.0551 14.0653 24.0507 0.0 138.287 0.0 -61.6502 19.7481 25.958 0.0 0.0 0.0 0.0 0.0 0.0 5.44236 -30.4524 9.90216 0.0 59.3597 0.0 -9.31763 13.7575 -5.38808 0.0 -30.560299 0.0 14.4438 -33.3202 14.1133 0.0 16.2138 0.0 14.0916 18.36515 -19.3314 0.0 -13.28348 0.0 
  9.836909790039062 -0.8721510314941406 10.668699951171876 -7.50414 70.4958 159.257 8.38719 3.1958 -9.42781 -26.8692 38.016 -2.4976 60.6542 29.2033 -59.0239 61.5509 -56.6563 48.6125 -101.5046 7.70454 -3.39733 -20.024 12.217 15.9018 0.0 27.6803 0.0 18.2272 -8.34536 -0.321629 0.0 0.0 0.0 0.0 0.0 0.0 127.2057 -1.93979 8.04271 32.8825 14.0904 24.6969 0.0 138.07 0.0 -61.8857 19.5651 26.0277 0.0 0.0 0.0 0.0 0.0 0.0 5.76941 -32.4568 9.37276 0.0 60.6468 0.0 -8.88505 11.87489 -3.42018 0.0 -29.114399 0.0 14.0349 -32.9113 13.8078 0.0 16.2543 0.0 14.4808 17.43003 -19.7857 0.0 -13.00756 0.0 
  9.904550170898437 -0.7486620330810547 10.700400390625 -7.81051 70.2217 160.608 8.26462 2.82857 -9.40778 -27.0733 38.0409 -2.5319 58.5034 30.0413 -56.1602 61.1743 -55.4687 48.868 -101.5431 7.24028 -3.37597 -21.1202 11.0791 15.6857 0.0 26.4416 0.0 18.2525 -8.69485 0.978325 0.0 0.0 0.0 0.0 0.0 0.0 127.189896 -1.9312 8.13844 32.9614 13.7709 24.8056 0.0 138.008 0.0 -62.0208 19.4152 26.0185 0.0 0.0 0.0 0.0 0.0 0.0 5.91758 -34.3848 8.60668 0.0 61.0028 0.0 -8.60746 10.68015 -1.2715 0.0 -28.4878 0.0 13.491 -32.521 13.3603 0.0 16.4443 0.0 14.3938 16.65956 -20.2861 0.0 -13.36627 0.0 
  9.969010009765626 -0.6217869949340821 10.729599609375 -8.01493 70.0726 161.739 8.13485 2.63745 -9.22513 -27.1633 37.7842 -2.57651 56.9722 30.9443 -53.8477 61.0838 -54.8128 49.3095 -101.6988 6.9397 -3.48274 -22.057 9.69629 15.8549 0.0 25.5457 0.0 17.5905 -8.75476 -0.0569489 0.0 0.0 0.0 0.0 0.0 0.0 127.2281 -1.92113 8.01867 32.8366 13.2659 25.0744 0.0 137.981 0.0 -62.2327 19.3521 26.1698 0.0 0.0 0.0 0.0 0.0 0.0 6.04222 -36.0611 7.90912 0.0 60.5961 0.0 -7.96095 9.96352 0.834754 0.0 -28.145 0.0 12.9507 -32.0066 12.8176 0.0 16.6726 0.0 14.3543 15.862989 -20.5493 0.0 -13.4729805 0.0 
  10.033699951171876 -0.4926430130004883 10.75800048828125 -8.29222 70.0283 162.801 8.04993 2.52 -8.84644 -27.5364 37.5929 -2.41359 56.0379 31.3906 -52.2735 61.2363 -54.1129 49.7597 -101.5466 6.45302 -3.75217 -23.0534 8.57184 16.2152 0.0 25.0042 0.0 17.1005 -8.25517 0.122419 0.0 0.0 0.0 0.0 0.0 0.0 127.5224 -1.91258 9.16528 32.8883 11.9275 24.6944 0.0 138.044 0.0 -61.5623 19.3144 26.4779 0.0 0.0 0.0 0.0 0.0 0.0 6.23498 -37.3724 7.52136 0.0 59.2746 0.0 -6.63097 9.121019 2.55564 0.0 -27.287899 0.0 12.4495 -31.4137 12.4233 0.0 16.9581 0.0 14.4489 15.012912 -20.8038 0.0 -13.27757 0.0 
  10.090900268554687 -0.3675680160522461 10.77969970703125 -8.31511 69.842 163.815 7.78912 2.25721 -8.72759 -27.0889 37.0471 -2.51696 54.7928 32.6514 -50.3895 61.5162 -54.5048 49.3203 -101.9004 8.05529 -4.86171 -23.4903 4.10891 16.4439 0.0 26.0593 0.0 16.098 -8.69174 1.28326 0.0 0.0 0.0 0.0 0.0 0.0 127.217896 -1.63149 8.17142 32.5444 11.5268 25.5585 0.0 138.045 0.0 -62.4676 19.1227 26.4479 0.0 0.0 0.0 0.0 0.0 0.0 6.35355 -38.8433 6.9262 0.0 57.4584 0.0 -5.28658 8.57999 3.92707 0.0 -27.676899 0.0 11.9995 -31.0095 12.0659 0.0 17.3486 0.0 14.7968 13.93471 -21.1357 0.0 -13.10295 0.0 
  10.15010009765625 -0.2384309959411621 10.797900390625 -8.1259 69.7743 164.529 7.47932 2.06461 -8.65804 -26.701 36.7885 -2.41474 54.2153 32.9716 -49.6766 61.6999 -54.5716 49.2559 -102.3931 7.69931 -4.9311 -23.7284 2.92065 16.7187 0.0 26.399 0.0 15.0994 -8.57767 1.77893 0.0 0.0 0.0 0.0 0.0 0.0 127.1945 -1.70163 8.22769 32.2465 11.1606 25.6415 0.0 137.866 0.0 -62.6054 19.0678 26.4532 0.0 0.0 0.0 0.0 0.0 0.0 6.55684 -39.9309 6.47662 0.0 54.9273 0.0 -4.86119 8.08128 4.78614 0.0 -27.3055 0.0 11.688 -30.3394 12.122 0.0 17.5775 0.0 15.1374 12.8608 -21.7526 0.0 -13.02185 0.0 
  10.203900146484376 -0.10749099731445312 10.81219970703125 -7.4952 69.9045 164.925 7.24421 2.06629 -8.73634 -26.1763 36.5667 -2.44808 53.8721 33.1465 -49.3782 61.7359 -54.76 48.93 -102.857 7.07887 -4.80547 -23.9508 2.15732 16.9859 0.0 26.9154 0.0 14.2822 -8.39769 2.27527 0.0 0.0 0.0 0.0 0.0 0.0 127.0002 -1.76805 8.60196 32.2487 10.8291 25.4508 0.0 137.606 0.0 -62.564 19.3233 26.3463 0.0 0.0 0.0 0.0 0.0 0.0 6.66785 -40.6848 5.90039 0.0 51.8119 0.0 -4.87182 7.94534 5.36367 0.0 -27.1013 0.0 11.3433 -29.4891 11.6584 0.0 17.8629 0.0 15.3988 11.84627 -22.1001 0.0 -13.00149 0.0 
  10.2547998046875 0.026261699199676514 10.82280029296875 -6.82842 69.969 165.125 7.04481 1.95036 -8.8424 -25.7787 36.5752 -2.33488 53.6444 32.6903 -49.5663 61.5316 -54.6075 48.4604 -103.1869 4.6301 -3.64819 -24.3891 4.51998 17.4459 0.0 26.5648 0.0 13.9191 -8.01972 1.80834 0.0 0.0 0.0 0.0 0.0 0.0 126.9149 -2.3332 8.65329 32.2377 11.4824 25.1133 0.0 137.286 0.0 -62.5633 19.4942 26.2205 0.0 0.0 0.0 0.0 0.0 0.0 6.90694 -41.284 5.72504 0.0 48.1407 0.0 -4.61905 8.26494 5.72298 0.0 -27.589401 0.0 11.1409 -28.6909 11.4517 0.0 18.1725 0.0 15.7846 10.832729 -22.4862 0.0 -13.05069 0.0 
  10.301800537109376 0.16455900192260742 10.83199951171875 -6.05002 70.0425 165.071 6.75812 1.77854 -8.92818 -25.2393 36.4285 -2.26031 53.7382 32.8701 -49.7759 61.3546 -55.0182 47.6706 -103.6299 4.3476 -3.9109 -24.506 3.27708 18.1079 0.0 27.3288 0.0 13.627 -7.53056 1.11644 0.0 0.0 0.0 0.0 0.0 0.0 126.7241 -2.20308 8.6227 32.1006 11.3983 25.0221 0.0 137.235 0.0 -62.559 19.4528 26.1344 0.0 0.0 0.0 0.0 0.0 0.0 7.20738 -41.5893 5.85778 0.0 43.8758 0.0 -4.72722 8.746799 5.80961 0.0 -27.451801 0.0 10.9851 -27.8864 11.0557 0.0 18.5209 0.0 16.1201 9.980061 -22.5764 0.0 -13.03904 0.0 
  10.345400390625 0.3065410041809082 10.838499755859376 -5.04665 70.0935 164.648 6.58865 1.62802 -8.89493 -24.7951 36.1586 -2.17063 54.2424 33.1692 -50.2819 61.0369 -55.5453 46.6008 -103.6062 4.90351 -4.68305 -25.0534 0.853873 18.6639 0.0 28.1644 0.0 13.3903 -6.81806 0.0984853 0.0 0.0 0.0 0.0 0.0 0.0 126.4288 -1.63477 9.45825 32.3471 10.1132 24.7348 0.0 137.48 0.0 -61.4598 19.6941 26.1859 0.0 0.0 0.0 0.0 0.0 0.0 7.63666 -41.5651 6.43228 0.0 38.9761 0.0 -5.34125 9.09317 5.64363 0.0 -26.8975 0.0 10.9462 -27.0612 10.641 0.0 18.8591 0.0 16.4211 9.26255 -22.5099 0.0 -13.00291 0.0 
  10.384300537109375 0.45078800201416014 10.841500244140626 -3.83621 70.1512 163.878 6.41818 1.54024 -8.94584 -24.2147 35.8827 -2.13683 54.6956 33.4531 -50.8056 60.6771 -56.1329 45.3786 -103.8834 4.4237 -4.64014 -25.3962 0.333236 19.226 0.0 28.3271 0.0 13.2705 -6.39137 -1.69124 0.0 0.0 0.0 0.0 0.0 0.0 126.3525 -1.66823 9.23993 32.1382 10.4825 24.5708 0.0 137.552 0.0 -61.5084 19.9037 25.9942 0.0 0.0 0.0 0.0 0.0 0.0 8.13261 -41.2802 7.30791 0.0 33.616 0.0 -6.0373 9.64189 5.29765 0.0 -26.989101 0.0 11.0133 -26.2201 10.3289 0.0 19.2381 0.0 16.8868 8.62294 -22.3572 0.0 -13.18881 0.0 
  10.421700439453126 0.602052993774414 10.841199951171875 -2.66355 70.1881 162.891 6.1501 1.34338 -8.97483 -23.6645 35.7251 -1.9559 55.5003 33.6319 -51.7461 59.9975 -56.7405 43.8773 -104.1812 4.00894 -4.59923 -25.7081 -0.132839 19.6511 0.0 28.4673 0.0 13.1582 -6.275 -3.14433 0.0 0.0 0.0 0.0 0.0 0.0 126.1906 -1.58091 9.24224 32.0834 10.6555 24.3007 0.0 137.695 0.0 -61.4931 19.9247 25.9462 0.0 0.0 0.0 0.0 0.0 0.0 8.77525 -40.5866 9.03726 0.0 27.791 0.0 -5.89176 10.43129 4.54953 0.0 -27.656101 0.0 11.1608 -25.3665 10.1024 0.0 19.6181 0.0 17.0994 8.164909 -22.1513 0.0 -13.49837 0.0 
  10.454300537109376 0.7611650085449219 10.836700439453125 -1.67746 70.2689 161.749 5.88471 1.12944 -8.83778 -23.3448 35.5492 -1.67801 56.8482 33.7943 -53.217 58.8612 -57.44 41.8778 -104.3037 3.70115 -4.55188 -26.1786 -0.618038 19.9159 0.0 28.4871 0.0 13.158 -6.3457 -3.94302 0.0 0.0 0.0 0.0 0.0 0.0 126.1409 -1.48319 9.0463 32.0018 10.9405 24.2618 0.0 137.762 0.0 -61.4493 19.9956 25.8517 0.0 0.0 0.0 0.0 0.0 0.0 9.33712 -39.4346 11.6104 0.0 21.4352 0.0 -5.53152 11.2566395 3.51975 0.0 -27.9893 0.0 11.3279 -24.4692 10.0657 0.0 20.0648 0.0 17.2128 7.89755 -21.886 0.0 -14.41346 0.0 
  10.478800048828125 0.9204779815673828 10.826800537109374 -0.212542 70.4179 160.213 5.68833 1.12893 -8.87445 -22.7758 35.2614 -1.64304 58.4468 33.9988 -54.9925 57.1729 -58.3153 39.2176 -104.5302 3.43109 -4.51527 -26.631 -1.15516 20.0124 0.0 28.5359 0.0 13.0251 -6.58023 -4.16104 0.0 0.0 0.0 0.0 0.0 0.0 125.9928 -1.33074 8.91402 31.9182 11.1041 24.1392 0.0 137.792 0.0 -61.3909 20.0321 25.6827 0.0 0.0 0.0 0.0 0.0 0.0 9.65329 -38.0901 14.2033 0.0 15.1483 0.0 -5.14296 12.11491 2.12827 0.0 -27.914299 0.0 11.5209 -23.4526 9.83592 0.0 20.479 0.0 17.4951 7.41208 -21.5192 0.0 -14.766526 0.0 
  10.497099609375 1.0884700012207031 10.808199462890625 1.6717 70.6272 157.942 5.61653 1.1769 -8.8423 -22.3115 35.0169 -1.52425 60.5565 34.0276 -57.413 55.0545 -59.3588 36.2216 -104.758 3.13885 -4.49803 -27.1087 -1.63614 20.0861 0.0 28.5482 0.0 12.9218 -6.76755 -4.00682 0.0 0.0 0.0 0.0 0.0 0.0 125.8098 -1.17517 8.69439 31.8339 11.2966 24.1575 0.0 137.784 0.0 -61.3037 20.0295 25.6849 0.0 0.0 0.0 0.0 0.0 0.0 9.9434 -36.466 17.6627 0.0 9.06676 0.0 -4.34581 12.75833 0.216957 0.0 -28.1208 0.0 11.869 -22.2711 9.81397 0.0 20.9142 0.0 17.7736 6.93196 -21.0649 0.0 -15.244939 0.0 
  10.504200439453125 1.2547699737548828 10.786600341796875 3.19516 70.715 155.865 5.52654 1.35022 -8.77611 -21.7358 34.4623 -1.56688 63.1028 34.1012 -60.2275 53.024 -60.8118 32.7454 -105.1824 3.01466 -4.30752 -27.3873 -2.14786 20.0616 0.0 28.5113 0.0 12.7421 -6.77094 -3.76323 0.0 0.0 0.0 0.0 0.0 0.0 125.7209 -1.045 8.51692 31.5963 11.3757 24.1296 0.0 137.763 0.0 -61.342 20.0825 25.6653 0.0 0.0 0.0 0.0 0.0 0.0 10.0942 -35.3106 19.5729 0.0 4.58377 0.0 -4.32982 12.9651 -1.05255 0.0 -27.6807 0.0 12.1457 -21.2797 9.95422 0.0 21.3952 0.0 18.0513 6.37704 -20.6547 0.0 -15.47717 0.0 
